<svg xmlns="http://www.w3.org/2000/svg" viewBox="0 0 155.01 32.31"><defs><style>.a{fill:#0081a3;}</style></defs><path class="a" d="M154.42,24.72c-13.66,3.45-34.08-9.78-34.08-9.78-2.8-1.46-23.68-12.12-36.75-6.89A78.71,78.71,0,0,0,73,13.56c-6.57,4.11-6,5.25-10.26,7.42-7.78,4-15.82,3.38-19.54,3.09A43.94,43.94,0,0,1,32.78,22c-9.2-3.31-10.21-9.21-10.21-9.21C20.56,4.16,27.32.92,27.32.92,42.13-2.45,40.55,11.49,40.55,11.49c-2.88,16.1-18.7,19.16-18.7,19.16C6.61,33,.5,31.07.5,31.07s-.15-1.26,2.2-.86c0,0,22.27,1.91,29.91-7.72,0,0,7.57-6.92,4.15-15.92a6.7,6.7,0,0,0-8-4.25s-6.79,2.37-2.1,12c0,0,2.61,4.6,7.31,5.83A47.9,47.9,0,0,0,42.69,22c4.05.45,10,1.12,16-1.22,3.73-1.46,4.13-2.79,9.32-6.39A73.08,73.08,0,0,1,82.47,6.57s13.29-3.89,25.72.51c0,0,10,2.76,26.53,12.73,0,0,7,4.19,19.7,3.63C154.42,23.44,155.75,23.69,154.42,24.72Z"/><path class="a" d="M154.42,24.72c-9,1.92-18.12-1.57-26.2-5.31a85.64,85.64,0,0,1-8-4.33,89.23,89.23,0,0,0-14-5.73c-7.13-2.1-15-3.7-22.24-1.14a69.4,69.4,0,0,0-13.29,7.2c-2.14,1.41-3.84,3.27-6,4.74C55.92,25.68,44.75,25.44,35,23c-7.65-1.83-15.2-7.71-12.7-16.44a10.24,10.24,0,0,1,4.91-6C31.47-.54,37.1-.29,39.49,4.06a12.13,12.13,0,0,1,1.17,8.84c-1.52,7.41-7.07,13.56-13.92,16.56a24.79,24.79,0,0,1-8.63,2.19,72,72,0,0,1-13.29.54A23.58,23.58,0,0,1,0,31.45c-.29-1.8,1.65-2,2.71-1.72,9.42.43,22.88.1,29.53-7.51,3.53-3.46,5.78-8.69,4.64-13.64C36.42,6,34.78,3.29,32,2.69c-4.68-1.19-7.52,3.16-6.43,7.55a18.06,18.06,0,0,0,1.34,3.82,13.47,13.47,0,0,0,5.4,5.08,49.59,49.59,0,0,0,16.2,2.91c4.64.06,9.58-.73,13.4-3.49,1.25-.94,2.46-2,3.74-2.95a72.75,72.75,0,0,1,16.68-9.3,49,49,0,0,1,19.54-1c10.33,1.93,19.77,7,28.89,12.11,6.89,4.78,15.33,6.43,23.62,6.06.3.06.66.25.59.59a1.58,1.58,0,0,1-.58.7Zm0,0A1.61,1.61,0,0,0,155,24c.07-.34-.3-.52-.57-.57a47.56,47.56,0,0,1-12.37-1,33.57,33.57,0,0,1-11.38-4.9q-5.4-3.06-11-5.71c-12.38-6-23.59-8.55-37.07-5A72.22,72.22,0,0,0,66.06,16.1c-2.51,1.93-4.92,4.28-8,5.2-7.65,2.57-16.06,1.34-23.69-.69C28,19.09,23.07,11.86,25.11,5.48,27.5-.45,35.52,1.08,37.23,6.71,39.42,12.29,36.93,19,33,22.77c-3.52,4.29-9,6.06-14.28,7.09a65.93,65.93,0,0,1-16.06.83,2.22,2.22,0,0,0-1.54.13C1,30.86,1,31,1,31L.65,30.6a24.2,24.2,0,0,0,4.24.6A72.65,72.65,0,0,0,18,30.69a23.7,23.7,0,0,0,8.37-2.08c6.61-2.87,12-8.77,13.45-15.89a11.39,11.39,0,0,0-1-8.23C36.56.47,31.39.35,27.41,1.32a9.7,9.7,0,0,0-4.78,9.1c.86,11.89,18.13,13.82,27.49,13.47,6.24-.36,12.62-2.22,17.19-6.63A63.61,63.61,0,0,1,83.79,7.69c11.69-3.95,26.11,1.86,36.64,7.12,9.76,5.82,22.36,12.18,34,9.91Z"/></svg>