<svg xmlns="http://www.w3.org/2000/svg" viewBox="0 0 116.18 135.21"><defs><style>.cls-1{fill:#231f20;}</style></defs><g id="Layer_2" data-name="Layer 2"><g id="Layer_1-2" data-name="Layer 1"><path class="cls-1" d="M115.61,8.18A12.34,12.34,0,0,0,106.82,0H6C1.4,0,0,8.86,0,8.86a32.06,32.06,0,0,0,5.44,15,31.58,31.58,0,0,0,11.33,9.7c6.83,3.69,16.06,21.65,28.31,75.62a21.08,21.08,0,0,1,19-2.39A21.4,21.4,0,0,1,68.36,109C82.84,56.8,93.63,40.18,101.44,36.64c1.37-.62,7.47-3,11.32-9.12C116.88,21,116.49,13.39,115.61,8.18Z"/><circle class="cls-1" cx="58.09" cy="123.07" r="12.14"/></g></g></svg>