<svg xmlns="http://www.w3.org/2000/svg" viewBox="0 0 179.66 133.53"><defs><style>.cls-1{fill:#231f20;}.cls-2,.cls-3,.cls-4{fill:none;}.cls-2,.cls-3,.cls-4,.cls-5{stroke:#231f20;stroke-miterlimit:10;}.cls-2,.cls-3,.cls-5{stroke-linecap:round;}.cls-2{stroke-width:3.13px;}.cls-3{stroke-width:1.39px;}.cls-4{stroke-width:1.18px;}.cls-5{fill:#fff;stroke-width:1.23px;}</style></defs><g id="Layer_2" data-name="Layer 2"><g id="Layer_1-2" data-name="Layer 1"><polygon class="cls-1" points="14.56 33.65 20.3 36 20.3 31.33 14.56 33.65"/><rect class="cls-1" x="170.02" y="27.45" width="7.55" height="11.73" transform="translate(207.11 -140.47) rotate(90)"/><line class="cls-2" x1="35.61" y1="33.85" x2="52.63" y2="33.85"/><line class="cls-2" x1="136.89" y1="33.85" x2="153.91" y2="33.85"/><line class="cls-3" x1="28.79" y1="27.45" x2="156.14" y2="27.45"/><line class="cls-3" x1="28.79" y1="40.2" x2="156.14" y2="39.45"/><path d="M128.65,133.53V103.67a34.87,34.87,0,0,0,6.1-7.72c6.19-10.68,4.85-21.72,4.1-26l-.69-57.1c0-7.19-6.14-12.39-12-11.75-4.77.52-9,4.84-9.49,10.45a10.93,10.93,0,1,0-21.84-.25,10.79,10.79,0,0,0-21.48-1.25c-1.15-5.28-5.61-9-10.39-9.09C57.15.87,51.77,6.1,51.88,12.83V58.26A107.94,107.94,0,0,0,6.64,53.74a12.23,12.23,0,0,0,5.08,23.1,97.47,97.47,0,0,1,15.83,2.69A101.2,101.2,0,0,1,67,99.93l.75,33.6"/><polygon class="cls-4" points="14.14 33.83 28.79 39.82 28.79 27.91 14.14 33.83"/><rect class="cls-5" x="156.6" y="27.45" width="15.1" height="11.97"/></g></g></svg>