<svg xmlns="http://www.w3.org/2000/svg" viewBox="0 0 179.15 175.02"><g id="Layer_2" data-name="Layer 2"><g id="Layer_1-2" data-name="Layer 1"><path d="M74.74,26.43c-.91-6.72-5.86-12.22-11.34-16.2A53.87,53.87,0,0,0,32.23,0c-5.49,0-11.9,1.43-14.17,6.44-2.71,6,2.26,12.51,6.86,17.23l16.66,17.1c2.39,2.46,4.85,5,6,8.22,2.47,6.66-1.11,14-5.07,19.85a127.36,127.36,0,0,1-20.91,24c-8.35,7.45-18.25,14.62-21,25.47a15.57,15.57,0,0,0,.54,10.33c1.34,2.91,3.82,5.14,6.39,7.06,19.87,14.85,49.54,14.87,69.43,0,5-3.75,10.12-8.57,16.39-8.39,4.32.12,8.24,2.72,11.11,6,5.71,6.43,7.93,15.12,11.2,23.07s8.61,16.08,16.95,18.16c8.59,2.14,17.25-2.84,24.27-8.23,7.83-6,15.37-13.29,18.17-22.76,2.45-8.31.89-17.42-2.72-25.29s-9.17-14.68-14.93-21.15c-1-1.09-2-2.29-2.08-3.75s.88-2.81,1.8-4c6.73-8.52,14.55-16.43,19-26.34s4.56-22.79-3.14-30.44c-6.35-6.31-16.37-7.44-25.14-5.68-8.14,1.65-16,5.46-24.32,4.85a23.68,23.68,0,0,1-19.15-12.93c-1.35-2.76-2.27-5.93-4.72-7.8C97,9,93.05,9.17,90,10.63s-5.47,4-7.81,6.42l-10.46,11"/></g></g></svg>