<svg xmlns="http://www.w3.org/2000/svg" viewBox="0 0 154.83 31.91"><defs><style>.cls-1{fill:#0081a3;}</style></defs><g id="Layer_2" data-name="Layer 2"><g id="Layer_1-2" data-name="Layer 1"><path class="cls-1" d="M.89,31.78c8.14.27,16.54.37,24.27-2.58,6-2.28,11.63-6.66,14.12-12.7a14.28,14.28,0,0,0,.5-10.38,9.46,9.46,0,0,0-7.13-6C26-1,20.59,5.53,22.2,11.87c1.88,7.4,9.77,10.47,16.54,11.61,7.65,1.28,15.87,1.19,23-2.29,6.67-3.27,11.76-9,18.63-12S95.12,6,102.42,7.57c15.87,3.39,28.22,16.28,44.72,17.6a31.36,31.36,0,0,0,6.05-.12c.53-.06,1.56-.38,1.63-1s-.8-.76-1.27-.71c-15.58,1.82-28.36-10-42.05-15.2C98.85,3.24,84.28,3.61,72.87,11.37c-5.73,3.9-10.74,8.78-17.7,10.37a34.79,34.79,0,0,1-10.63.57A36.72,36.72,0,0,1,33.67,20C28.13,17.69,22.36,11.32,25.79,5c1.44-2.64,4-4,6.92-2.7,3.17,1.46,4.78,4.84,4.9,8.21.25,7.18-5.15,13.27-11.27,16.29C18.85,30.54,10.13,30.28,2,30c-.6,0-1.62.2-1.9.82s.24.93.81,1Z"/></g></g></svg>