<svg xmlns="http://www.w3.org/2000/svg" viewBox="0 0 148.31 179.15"><defs><style>.cls-1{fill:#231f20;}.cls-2{fill:#fff;}.cls-3{fill:none;stroke:#fff;stroke-linecap:round;stroke-miterlimit:10;stroke-width:2.37px;}</style></defs><g id="Layer_2" data-name="Layer 2"><g id="Layer_1-2" data-name="Layer 1"><path class="cls-1" d="M10.51,132.73S-38.21,7.93,74.15,0c0,0,108,0,63.32,132.73,0,0-6,7.05-17.9,10.45a30.65,30.65,0,0,0-8.6,14.44s-4.56,18.79-9.3,11.58l-1.54-7s1.1,16.17-6.82,14c0,0-6.49,2.31-6.27-13.31,0,0,1.32,17.16-5.83,15.62,0,0-8,3.08-7-14.63,0,0,.94,18.64-7.35,14.83,0,0-7,1.17-4.31-15.57,0,0-.28,17-9,12.77,0,0-7.21-1.17-3.61-15.21,0,0-1.56,11-4.87,10.24A11.78,11.78,0,0,1,40.38,167c-2.48-3.68-1.4-7.21-2.24-11.32-.61-3-2.42-7.11-7.74-11.41C30.4,144.25,9.7,137.19,10.51,132.73Z"/><path class="cls-2" d="M88.38,79.76A1.15,1.15,0,0,0,90,81.19a36.88,36.88,0,0,1,35.62-.75,1.15,1.15,0,0,0,1.46-1.71,28.18,28.18,0,0,0-17.28-10.1,1.37,1.37,0,0,0-.28,0C108,68.66,93.16,69.42,88.38,79.76Z"/><path class="cls-2" d="M19.76,79.54A1.1,1.1,0,0,0,21.3,81a34,34,0,0,1,35.46-.93,1.09,1.09,0,0,0,1.37-1.66,28.19,28.19,0,0,0-17-9.78,1.18,1.18,0,0,0-.27,0C39.28,68.66,24.66,69.4,19.76,79.54Z"/><path class="cls-3" d="M24.11,58s9.34-9.87,19.81-6.91"/><path class="cls-3" d="M124.2,58s-9.34-9.87-19.81-6.91"/><path class="cls-2" d="M71.35,99.07l-5,8.71a3.25,3.25,0,0,0,2.81,4.87H79.19A3.25,3.25,0,0,0,82,107.78l-5-8.71A3.25,3.25,0,0,0,71.35,99.07Z"/></g></g></svg>