<svg xmlns="http://www.w3.org/2000/svg" viewBox="0 0 74.3 172.4"><g id="Layer_2" data-name="Layer 2"><g id="Layer_1-2" data-name="Layer 1"><path d="M74.14,1.18C58.26,35.55,42.63,68,35.24,104.86a238.85,238.85,0,0,0-4.56,37.71c-.56,9.67-.12,18.75-.19,28.91v.25a.68.68,0,0,1-1.32.2,153.53,153.53,0,0,1-6.11-22.45c-7.29-38.7,2.74-78.38,22.41-112A192.87,192.87,0,0,1,73.14.2a.69.69,0,0,1,1,0,.77.77,0,0,1,0,1Z"/><path d="M0,27.15s41.31,4.72,43.71,40C43.71,67.15,5.76,62,0,27.15Z"/><path d="M73.64,65.77s-8,21.54-47.09,20.38C26.55,86.15,34.79,66.43,73.64,65.77Z"/></g></g></svg>