<svg xmlns="http://www.w3.org/2000/svg" viewBox="0 0 58.26 18.37"><defs><style>.a{fill:#2c2c2c;}</style></defs><path class="a" d="M6.81,14.06a4.31,4.31,0,0,1-2.09.51,3.28,3.28,0,0,1-2.41-.92,3.78,3.78,0,0,1-.81-2.77V7.48H0V5.11H1.5V2.71l2.86-.49V5.11H6.81V7.48H4.36v3.1c0,.91.21,1.58,1.07,1.58a3.49,3.49,0,0,0,1.38-.37Z"/><path class="a" d="M8.52,0h2.86V5.94l0,0a4.47,4.47,0,0,1,2.82-1,3.34,3.34,0,0,1,2.43.94,3.73,3.73,0,0,1,.81,2.74v5.77H14.61V9.06a1.84,1.84,0,0,0-.32-1.3,1.22,1.22,0,0,0-1-.39,3.3,3.3,0,0,0-1.93.77v6.22H8.52Z"/><path class="a" d="M24.63,16.32v2.05H20V.39h4.6V2.44h-2V16.32Z"/><path class="a" d="M28,.54a1.66,1.66,0,0,1,1.65,1.64,1.66,1.66,0,0,1-3.31,0A1.66,1.66,0,0,1,28,.54ZM26.61,5.11h2.86v9.25H26.61Z"/><path class="a" d="M31.84,5.11h2.82V6l0,0a4.53,4.53,0,0,1,2.85-1.07A3.34,3.34,0,0,1,40,5.85a3.73,3.73,0,0,1,.81,2.74v5.77H37.93V9.06a1.89,1.89,0,0,0-.32-1.3,1.23,1.23,0,0,0-1-.39,3.3,3.3,0,0,0-1.93.77v6.22H31.84Z"/><path class="a" d="M43.12,0H46V9l0,0,3.23-3.93H52.5L49,9.25l3.8,5.11H49.38L46,9.64l0,0v4.7H43.12Z"/><path class="a" d="M55.63,16.32V2.44h-2v-2h4.61v18H53.65V16.32Z"/></svg>