<svg xmlns="http://www.w3.org/2000/svg" viewBox="0 0 41.78 41.78"><defs><style>.cls-1,.cls-3{fill:#fff;}.cls-1{stroke:#231f20;stroke-miterlimit:10;stroke-width:3px;}.cls-2{fill:#231f20;}</style></defs><g id="Layer_2" data-name="Layer 2"><g id="Layer_1-2" data-name="Layer 1"><circle class="cls-1" cx="20.89" cy="20.89" r="19.39"/><rect class="cls-2" x="15.24" y="5.5" width="11.29" height="4.21"/><path class="cls-2" d="M26.58,10.61s.08,7.61,4,10l-9.7,15.51V10.61Z"/><path class="cls-2" d="M15.2,10.61s-.08,7.61-4,10l9.71,15.51V10.61Z"/><polygon class="cls-3" points="22.77 33.24 22.71 22 20.87 22 20.87 36.28 22.77 33.24"/><path class="cls-3" d="M23,18.06a2.21,2.21,0,0,0-2.14-2.19v4.38A2.21,2.21,0,0,0,23,18.06Z"/><path class="cls-3" d="M20.79,20.26h.08V15.87h-.08a2.2,2.2,0,1,0,0,4.39Z"/><polygon class="cls-3" points="20.87 22 18.87 22 18.93 33.19 20.87 36.28 20.87 22"/></g></g></svg>